<svg id="Group_15" data-name="Group 15" xmlns="http://www.w3.org/2000/svg" width="19.399" height="18.683" viewBox="0 0 19.399 18.683">
  <path id="Path_35" data-name="Path 35"
  d="M633.341,385.985a2.4,2.4,0,0,1-1.117-.277l-2.9-1.527a1.062,1.062,0,0,0-.99,0l-2.9,1.527a2.395,2.395,0,0,1-3.475-2.524l.555-3.234a1.063,1.063,0,0,0-.306-.942l-2.349-2.29a2.395,2.395,0,0,1,1.327-4.085l3.247-.472a1.062,1.062,0,0,0,.8-.582l1.452-2.942a2.395,2.395,0,0,1,4.294,0l1.453,2.942a1.063,1.063,0,0,0,.8.582l3.247.472a2.395,2.395,0,0,1,1.327,4.085l-2.35,2.291a1.063,1.063,0,0,0-.306.941l.555,3.234a2.4,2.4,0,0,1-2.358,2.8Zm-4.515-3.258a2.393,2.393,0,0,1,1.114.275l2.9,1.527a1.064,1.064,0,0,0,1.543-1.121l-.555-3.234a2.4,2.4,0,0,1,.689-2.12l2.35-2.29a1.064,1.064,0,0,0-.59-1.815l-3.247-.472a2.4,2.4,0,0,1-1.8-1.31l-1.452-2.942a1.064,1.064,0,0,0-1.908,0l-1.452,2.942a2.393,2.393,0,0,1-1.8,1.31l-3.247.472a1.064,1.064,0,0,0-.59,1.815l2.349,2.29a2.394,2.394,0,0,1,.689,2.12l-.555,3.234a1.064,1.064,0,0,0,1.543,1.121l2.9-1.527A2.4,2.4,0,0,1,628.825,382.727Z" transform="translate(-619.125 -367.302)"/>
</svg>
